<?xml version="1.0" standalone="no"?>
<!DOCTYPE svg PUBLIC "-//W3C//DTD SVG 20010904//EN"
 "http://www.w3.org/TR/2001/REC-SVG-20010904/DTD/svg10.dtd">
<svg version="1.0" xmlns="http://www.w3.org/2000/svg"
 width="1755.000000pt" height="339.000000pt" viewBox="0 0 1755.000000 339.000000"
 preserveAspectRatio="xMidYMid meet">

<g transform="translate(0.000000,339.000000) scale(0.100000,-0.100000)"
fill="#000000" stroke="none">
<path d="M4605 3133 c-295 -24 -461 -50 -650 -99 -431 -111 -799 -288 -1100
-528 -76 -60 -250 -233 -309 -306 -108 -134 -217 -325 -261 -455 -74 -222 -84
-430 -29 -635 21 -75 92 -250 113 -279 21 -28 41 -20 41 15 0 54 134 338 219
462 41 60 244 286 327 362 83 78 194 156 304 215 150 80 297 146 339 152 35 4
32 1 -79 -103 -248 -231 -408 -415 -542 -619 -246 -375 -296 -664 -151 -883
43 -65 73 -86 163 -118 125 -43 207 -57 350 -57 110 -1 151 3 220 21 357 95
654 399 869 889 98 224 184 514 262 883 22 107 54 238 71 290 57 179 157 343
305 501 82 88 238 219 259 219 36 0 3 26 -47 37 -100 22 -552 47 -674 36z"/>
<path d="M13082 2310 c-110 -29 -187 -75 -273 -160 -118 -117 -155 -212 -166
-425 -17 -343 145 -593 428 -660 158 -37 502 10 526 72 8 21 -18 122 -36 144
-16 18 -18 18 -76 -2 -84 -30 -279 -38 -354 -15 -78 23 -136 60 -176 113 -54
71 -67 125 -72 310 l-5 162 30 63 c44 94 91 142 180 185 73 35 82 37 177 38
84 0 113 -5 183 -29 49 -16 87 -25 93 -19 13 13 49 122 49 148 0 20 -13 27
-97 55 -130 43 -298 51 -411 20z"/>
<path d="M6801 2301 l-93 -6 -143 -390 c-178 -488 -197 -537 -211 -542 -18 -6
-71 130 -285 729 l-74 208 -117 0 c-96 0 -118 -3 -118 -14 0 -31 292 -786 424
-1096 l44 -105 117 0 117 0 55 130 c101 240 220 538 316 795 120 322 114 300
85 298 -13 -1 -65 -4 -117 -7z"/>
<path d="M11382 1694 l-3 -614 121 0 120 0 0 270 0 270 180 1 c99 0 219 1 268
1 l87 1 3 -272 2 -271 110 0 110 0 0 616 0 615 -110 -3 -110 -3 0 -242 0 -243
-270 0 -270 0 0 245 0 246 -117 -2 -118 -1 -3 -614z"/>
<path d="M13937 2303 c-60 -5 -61 -6 -76 -198 -7 -82 -16 -200 -21 -260 -17
-203 -40 -599 -40 -682 l0 -83 105 0 105 0 0 43 c0 126 33 733 41 754 20 54
37 26 214 -372 l118 -265 52 0 c29 0 66 -3 82 -6 l29 -6 69 164 c84 201 207
460 234 493 32 42 27 85 61 -542 6 -105 13 -205 16 -221 7 -37 23 -42 132 -42
l82 0 0 43 c0 88 -84 1100 -96 1160 l-6 28 -100 -3 -100 -3 -187 -393 -186
-393 -25 58 c-14 32 -87 189 -163 348 -77 160 -149 311 -160 337 l-22 48 -55
-2 c-30 -1 -77 -3 -103 -5z"/>
<path d="M10335 2016 c-74 -18 -124 -45 -167 -89 -95 -98 -87 -294 15 -371 18
-14 94 -54 168 -89 176 -84 221 -135 172 -196 -34 -42 -162 -53 -288 -25 -38
8 -82 17 -97 20 -25 6 -28 3 -38 -37 -7 -24 -13 -64 -14 -88 l-1 -44 50 -14
c70 -20 316 -28 386 -14 75 16 156 66 193 119 26 37 31 54 34 118 4 68 1 81
-27 139 -18 35 -45 74 -62 86 -16 11 -84 45 -151 75 -175 78 -211 111 -194
180 15 59 142 80 285 48 40 -9 74 -15 75 -13 8 8 30 159 24 164 -10 11 -220
45 -267 44 -25 0 -68 -6 -96 -13z"/>
<path d="M7272 2001 c-182 -68 -287 -241 -286 -471 1 -223 84 -367 253 -436
57 -24 83 -28 196 -32 95 -3 154 0 220 13 49 9 92 18 96 21 9 5 -21 147 -34
161 -9 9 -27 8 -77 -4 -46 -10 -98 -14 -177 -11 -107 4 -114 6 -150 34 -55 45
-92 96 -108 147 l-14 47 197 0 c108 0 248 3 310 7 l112 6 0 74 c0 158 -52 296
-143 379 -67 61 -104 74 -237 80 -88 4 -114 1 -158 -15z m245 -187 c51 -39
103 -150 80 -173 -7 -7 -76 -11 -199 -11 -217 0 -216 0 -177 82 58 123 203
173 296 102z"/>
<path d="M8227 2009 c-49 -5 -101 -14 -115 -21 -55 -27 -56 -37 -60 -490 l-4
-418 111 0 111 0 0 380 0 380 83 0 c98 0 174 -20 206 -54 43 -46 52 -110 58
-418 l6 -288 104 0 105 0 -5 313 c-5 327 -10 367 -55 452 -40 75 -94 120 -177
149 -60 21 -239 29 -368 15z"/>
<path d="M9090 1743 c0 -463 33 -569 198 -650 48 -23 69 -27 181 -31 122 -4
251 7 353 30 l48 11 0 454 0 453 -110 0 -110 0 0 -233 c0 -129 -3 -302 -7
-386 l-6 -153 -111 4 c-128 4 -153 15 -185 81 -28 59 -41 207 -41 468 l0 219
-105 0 -105 0 0 -267z"/>
</g>
</svg>
